<?xml version="1.0" encoding="UTF-8"?>
<svg id="Calque_1" xmlns="http://www.w3.org/2000/svg" viewBox="0 0 1080 1089">
  <path d="M905.49,473.46c-34.87-49.46-81.16-82.41-134.96-98.83,75-58.54,140.64-124.91,152.29-197.99,6.44-40.39-3.85-79.69-29.75-113.66C862.21,22.5,817.64.14,767.6,0h-.44C705.08,0,639.44,35.16,595.74,91.84c-23.53,30.52-49.49,74.47-73.69,119.77-1.2-28.41-3.06-56.38-5.79-83.62l-115.15,11.55c16.53,164.78,2.48,356.71-38.53,526.56l112.49,27.17c12.17-50.39,22.03-102.64,29.68-155.59,105.96-63.86,237.73-94.61,306.16,2.46,57.09,80.98,7.47,218.62-112.98,313.36-115.51,90.87-249.33,135.76-340.9,114.37-46.4-10.83-79.01-37.17-99.7-80.5-22.13-46.34-15.03-132.03,41.36-206.13l-92.1-70.08c-76.95,101.14-98.53,232.18-53.7,326.08,35.8,74.96,97.29,124.53,177.82,143.33,24.25,5.66,49.76,8.43,76.19,8.43,113.47,0,243.8-51.12,362.57-144.54,171.66-135.02,230.13-337.5,136.02-470.99ZM594.89,358.44c-8.67,5.97-17.13,11.8-25.3,17.48,32.4-69.62,81.35-166.15,117.79-213.41,21.59-28,53.62-46.78,79.76-46.78h.15c14,.04,24.73,5.58,33.76,17.43,8.37,10.98,8.55,18.64,7.49,25.27-9.46,59.36-137.28,147.41-213.65,200.01Z"/>
</svg>