<?xml version="1.0" encoding="UTF-8"?>
<svg id="Calque_1" xmlns="http://www.w3.org/2000/svg" viewBox="0 0 1080 262.33">
  <path d="M187.76,114.05c-8.4-11.92-19.55-19.85-32.51-23.81,18.07-14.1,33.88-30.09,36.69-47.69,1.55-9.73-.93-19.2-7.17-27.38C177.33,5.42,166.6.03,154.54,0h-.11c-14.95,0-30.77,8.47-41.29,22.12-5.67,7.35-11.92,17.94-17.75,28.85-.29-6.84-.74-13.58-1.4-20.14l-27.74,2.78c3.98,39.69.6,85.93-9.28,126.84l27.1,6.54c2.93-12.14,5.31-24.73,7.15-37.48,25.52-15.38,57.27-22.79,73.75.59,13.75,19.51,1.8,52.66-27.21,75.48-27.83,21.89-60.06,32.7-82.12,27.55-11.18-2.61-19.03-8.95-24.02-19.39-5.33-11.16-3.62-31.8,9.96-49.65l-22.19-16.88C.86,171.58-4.34,203.15,6.46,225.77c8.62,18.06,23.43,30,42.84,34.53,5.84,1.36,11.99,2.03,18.35,2.03,27.33,0,58.73-12.31,87.34-34.82,41.35-32.52,55.43-81.3,32.76-113.46ZM112.94,86.34c-2.09,1.44-4.13,2.84-6.09,4.21,7.81-16.77,19.6-40.02,28.37-51.41,5.2-6.74,12.92-11.27,19.21-11.27h.04c3.37,0,5.96,1.34,8.13,4.2,2.02,2.65,2.06,4.49,1.8,6.09-2.28,14.3-33.07,35.51-51.47,48.18Z"/>
  <g>
    <path d="M262.88,191.22v8.88h-22.26V62.21h23.88v49.11c7.96-6.61,18.1-10.39,28.95-10.39,26.6,0,47.95,22.67,47.95,51s-21.35,51-47.95,51c-11.58,0-22.26-4.34-30.58-11.71ZM316.26,151.93c0-15.87-11.58-27.96-25.88-27.96s-25.88,12.09-25.88,27.96,11.58,27.96,25.88,27.96,25.88-12.28,25.88-27.96Z"/>
    <path d="M430.25,103.76l-.18,58.37c-.18,24.18-17.37,40.8-42.16,40.8s-40.53-16.24-40.53-40.8v-58.37h23.88v54.21c0,13.22,6.88,21.91,17.19,21.91,10.86,0,17.91-8.88,17.91-21.72v-54.4h23.89Z"/>
    <path d="M461.73,191.22v8.88h-22.26V62.21h23.88v49.11c7.96-6.61,18.1-10.39,28.95-10.39,26.6,0,47.95,22.67,47.95,51s-21.35,51-47.95,51c-11.58,0-22.26-4.34-30.58-11.71ZM515.11,151.93c0-15.87-11.58-27.96-25.88-27.96s-25.88,12.09-25.88,27.96,11.58,27.96,25.88,27.96,25.88-12.28,25.88-27.96Z"/>
    <path d="M568.48,191.22v8.88h-22.26V62.21h23.88v49.11c7.96-6.61,18.1-10.39,28.95-10.39,26.6,0,47.95,22.67,47.95,51s-21.35,51-47.95,51c-11.58,0-22.26-4.34-30.58-11.71ZM621.86,151.93c0-15.87-11.58-27.96-25.88-27.96s-25.88,12.09-25.88,27.96,11.58,27.96,25.88,27.96,25.88-12.28,25.88-27.96Z"/>
    <path d="M652.98,62.21h23.88v137.89h-23.88V62.21Z"/>
    <path d="M735.13,202.93c-30.04,0-52.11-21.53-52.11-50.62s21.71-51.38,49.58-51.38,46.87,21.72,46.87,50.25c0,2.83-.18,6.42-.54,10.01h-69.67c2.35,11.71,11.58,19.27,25.33,19.27,9.41,0,16.1-3.59,22.8-11.9l19,14.73c-9.41,12.66-24.07,19.64-41.26,19.64ZM753.95,141.35c-1.45-10.96-9.77-18.32-21.53-18.32s-19.54,7.75-22.44,18.32h43.97Z"/>
    <path d="M853.46,59.37c39.27,0,70.39,31.73,70.39,71.78s-31.12,71.78-70.39,71.78-70.21-31.54-70.21-71.78,30.94-71.78,70.21-71.78ZM853.46,177.05c23.88,0,42.7-20.21,42.7-45.9s-18.82-45.9-42.7-45.9-42.52,20.21-42.52,45.9,18.64,45.9,42.52,45.9Z"/>
    <path d="M1013.96,103.76l-.18,58.37c-.18,24.18-17.37,40.8-42.16,40.8s-40.53-16.24-40.53-40.8v-58.37h23.88v54.21c0,13.22,6.88,21.91,17.19,21.91,10.86,0,17.91-8.88,17.91-21.72v-54.4h23.89Z"/>
    <path d="M1018.84,103.76h16.65v-27.39h23.89v27.39h20.63v21.72h-20.63v74.61h-23.89v-74.61h-16.65v-21.72Z"/>
  </g>
</svg>